<svg width="60" height="60" viewBox="0 0 60 60" fill="none" xmlns="http://www.w3.org/2000/svg">
<rect width="60" height="60" rx="10" fill="white" fill-opacity="0.3"/>
<g clip-path="url(#clip0_40_15)">
<path d="M20.2751 41.8498C19.6867 41.884 19.108 41.6884 18.6611 41.3042C17.7796 40.4175 17.7796 38.9855 18.6611 38.0988L37.9613 18.7985C38.8781 17.9406 40.3166 17.9883 41.1745 18.9051C41.9502 19.7341 41.9954 21.0083 41.2803 21.8902L21.8663 41.3042C21.4252 41.6828 20.8558 41.8781 20.2751 41.8498Z" fill="white"/>
<path d="M39.5527 41.8498C38.9563 41.8473 38.3848 41.6106 37.9613 41.1906L18.661 21.8902C17.8444 20.9366 17.9554 19.5015 18.909 18.6848C19.7601 17.956 21.0153 17.956 21.8664 18.6848L41.2803 37.9852C42.1969 38.8432 42.2442 40.2818 41.3862 41.1984C41.352 41.2348 41.3168 41.2701 41.2803 41.3042C40.805 41.7176 40.1793 41.9152 39.5527 41.8498Z" fill="white"/>
</g>
<defs>
<clipPath id="clip0_40_15">
<rect width="24" height="24" fill="white" transform="translate(18 18)"/>
</clipPath>
</defs>
</svg>
