<svg width="60" height="60" viewBox="0 0 60 60" fill="none" xmlns="http://www.w3.org/2000/svg">
<rect width="60" height="60" rx="10" fill="#44454F" fill-opacity="0.1"/>
<path d="M40.1895 27.8873L40.1708 27.8686L32.1083 19.7998C32.1083 19.7998 22.2833 29.6248 17.5458 34.4623C16.9583 35.0623 16.5083 35.8998 16.2458 36.7123C15.4708 39.0873 14.827 41.5123 14.1083 43.9061C13.9145 44.5498 13.952 45.1186 14.4583 45.5936C14.9333 46.0436 15.4708 46.0686 16.0833 45.8811C18.3708 45.1936 20.6708 44.5436 22.9645 43.8873C24.1708 43.5436 25.1833 42.9061 26.0708 42.0123C30.5833 37.4873 40.1895 27.8873 40.1895 27.8873Z" fill="white"/>
<path d="M44.8958 17.8625L42.1396 15.1063C40.6646 13.6313 38.2833 13.6313 36.8083 15.1063L33.6833 18.2312L41.7708 26.3188L44.8958 23.1938C46.3708 21.725 46.3708 19.3375 44.8958 17.8625Z" fill="white"/>
</svg>
