<svg width="60" height="60" viewBox="0 0 60 60" fill="none" xmlns="http://www.w3.org/2000/svg">
<rect width="60" height="60" rx="10" fill="#44454F" fill-opacity="0.1"/>
<g clip-path="url(#clip0_50_138)">
<path d="M40.1875 27.8873L40.1687 27.8686L32.1062 19.7998C32.1062 19.7998 22.2812 29.6248 17.5437 34.4623C16.9562 35.0623 16.5062 35.8998 16.2437 36.7123C15.4687 39.0873 14.825 41.5123 14.1062 43.9061C13.9125 44.5498 13.95 45.1186 14.4562 45.5936C14.9312 46.0436 15.4687 46.0686 16.0812 45.8811C18.3687 45.1936 20.6687 44.5436 22.9625 43.8873C24.1687 43.5436 25.1812 42.9061 26.0687 42.0123C30.5812 37.4873 40.1875 27.8873 40.1875 27.8873Z" fill="#AFB1C0"/>
<path d="M44.8937 17.8625L42.1374 15.1063C40.6624 13.6313 38.2812 13.6313 36.8062 15.1063L33.6812 18.2312L41.7687 26.3188L44.8937 23.1938C46.3687 21.725 46.3687 19.3375 44.8937 17.8625Z" fill="#AFB1C0"/>
</g>
<defs>
<clipPath id="clip0_50_138">
<rect width="32" height="32" fill="white" transform="translate(14 14)"/>
</clipPath>
</defs>
</svg>
