<svg width="60" height="60" viewBox="0 0 60 60" fill="none" xmlns="http://www.w3.org/2000/svg">
<rect width="60" height="60" rx="10" fill="#44454F" fill-opacity="0.1"/>
<path d="M42.1343 47V16.4478C42.1343 15.5334 41.771 14.6564 41.1244 14.0098C40.4779 13.3632 39.6009 13 38.6865 13H21.4478C20.5334 13 19.6564 13.3632 19.0098 14.0098C18.3632 14.6564 18 15.5334 18 16.4478V47L30.0671 39.1202L42.1343 47ZM23.1716 23.3433L27.7692 22.7692L30.0671 18.1716L32.3651 22.7692L36.9626 23.3433L33.1305 26.5997L34.6647 31.9626L30.0671 28.8976L25.4696 31.9626L27.0038 26.5997L23.1716 23.3433Z" fill="#AFB1C0"/>
</svg>
